<svg width="96" height="96" viewBox="0 0 96 96" fill="none" xmlns="http://www.w3.org/2000/svg">
<path d="M48 96C74.5097 96 96 74.5097 96 48C96 21.4903 74.5097 0 48 0C21.4903 0 0 21.4903 0 48C0 74.5097 21.4903 96 48 96Z" fill="#4A74D0"/>
<path d="M26 5.28L36 24.8H60L47.28 0C39.6 0.08 32.4 2 26 5.28Z" fill="#D44A90"/>
<path d="M46.3201 0.0799999L34.8 22.48L36 24.8H57.6L58.8 22.48L47.28 0C46.96 0 46.64 -7.7486e-08 46.3201 0.0799999Z" fill="#A72973"/>
<path d="M33.6 29.6H57.2L70 5.28C63.6 2 56.4 0.08 48.72 0L33.6 29.6Z" fill="#F15A9E"/>
<path d="M48 77.2C62.8012 77.2 74.7999 65.2012 74.7999 50.4C74.7999 35.5988 62.8012 23.6 48 23.6C33.1987 23.6 21.2 35.5988 21.2 50.4C21.2 65.2012 33.1987 77.2 48 77.2Z" fill="#D6A266"/>
<path d="M48 72.16C60.0177 72.16 69.76 62.4178 69.76 50.4C69.76 38.3823 60.0177 28.64 48 28.64C35.9823 28.64 26.24 38.3823 26.24 50.4C26.24 62.4178 35.9823 72.16 48 72.16Z" fill="#B88448"/>
<path d="M47.9999 68.48C57.9852 68.48 66.0799 60.3853 66.0799 50.4C66.0799 40.4147 57.9852 32.32 47.9999 32.32C38.0146 32.32 29.9199 40.4147 29.9199 50.4C29.9199 60.3853 38.0146 68.48 47.9999 68.48Z" fill="#D6A266"/>
<path d="M48 56.96L53.52 59.84C54.32 60.24 55.28 59.6 55.12 58.64L54.08 52.48L58.5599 48.16C59.2 47.52 58.88 46.4 57.92 46.24L51.76 45.36L49.04 39.76C48.64 38.96 47.44 38.96 47.04 39.76L44.32 45.36L38.16 46.24C37.28 46.4 36.88 47.52 37.52 48.16L42 52.48L40.96 58.64C40.8 59.52 41.76 60.24 42.56 59.84L48 56.96Z" fill="white"/>
</svg>
