<svg width="120" height="120" viewBox="0 0 120 120" fill="none" xmlns="http://www.w3.org/2000/svg">
<path d="M60 120C93.1371 120 120 93.1371 120 60C120 26.8629 93.1371 0 60 0C26.8629 0 0 26.8629 0 60C0 93.1371 26.8629 120 60 120Z" fill="#4A74D0"/>
<path d="M32.5 6.6L45 31H75L59.1 0C49.5 0.1 40.5 2.5 32.5 6.6Z" fill="#D44A90"/>
<path d="M57.9 0.0999999L43.5 28.1L45 31H72L73.5 28.1L59.1 0C58.7 0 58.3 -9.68575e-08 57.9 0.0999999Z" fill="#A72973"/>
<path d="M42 37H71.5L87.5 6.6C79.5 2.5 70.5 0.1 60.9 0L42 37Z" fill="#F15A9E"/>
<path d="M60 96.5C78.5015 96.5 93.5 81.5015 93.5 63C93.5 44.4985 78.5015 29.5 60 29.5C41.4985 29.5 26.5 44.4985 26.5 63C26.5 81.5015 41.4985 96.5 60 96.5Z" fill="#C6C6C6"/>
<path d="M59.9998 90.2C75.0219 90.2 87.1998 78.0221 87.1998 63C87.1998 47.9778 75.0219 35.8 59.9998 35.8C44.9777 35.8 32.7998 47.9778 32.7998 63C32.7998 78.0221 44.9777 90.2 59.9998 90.2Z" fill="#919191"/>
<path d="M59.9999 85.6C72.4815 85.6 82.5999 75.4817 82.5999 63C82.5999 50.5184 72.4815 40.4 59.9999 40.4C47.5183 40.4 37.3999 50.5184 37.3999 63C37.3999 75.4817 47.5183 85.6 59.9999 85.6Z" fill="#C6C6C6"/>
<path d="M60 71.2L66.9 74.8C67.9 75.3 69.1 74.5 68.9 73.3L67.6 65.6L73.2 60.2C74 59.4 73.6 58 72.4 57.8L64.7 56.7L61.3 49.7C60.8 48.7 59.3 48.7 58.8 49.7L55.4 56.7L47.7 57.8C46.6 58 46.1 59.4 46.9 60.2L52.5 65.6L51.2 73.3C51 74.4 52.2 75.3 53.2 74.8L60 71.2Z" fill="white"/>
</svg>
